<svg xmlns="http://www.w3.org/2000/svg" viewBox="0 0 506.84 398.49"><defs><style>.cls-1{fill:#f78914;stroke:#f78914;}.cls-1,.cls-2,.cls-3{stroke-miterlimit:10;}.cls-2{fill:#055fa3;stroke:#055fa3;}.cls-3{fill:#f78813;stroke:#f78813;}</style></defs><g id="Layer_3_copy" data-name="Layer 3 copy"><path class="cls-1" d="M940.36,345.58v41.19H894.7C902.92,369.31,919.29,354.72,940.36,345.58Z" transform="translate(-714.89 -334.74)"/><path class="cls-1" d="M991.89,335.24v51.53H940.36V345.58A129.78,129.78,0,0,1,991.89,335.24Z" transform="translate(-714.89 -334.74)"/><rect class="cls-1" x="225.47" y="52.03" width="51.53" height="51.53"/><path class="cls-1" d="M940.36,386.77V438.3H894.7a59.48,59.48,0,0,1,0-51.53Z" transform="translate(-714.89 -334.74)"/><path class="cls-1" d="M940.36,438.3v41.19c-21.07-9.14-37.44-23.72-45.66-41.19Z" transform="translate(-714.89 -334.74)"/><path class="cls-1" d="M991.89,438.3v51.53a129.73,129.73,0,0,1-51.52-10.34V438.3Z" transform="translate(-714.89 -334.74)"/><rect class="cls-2" x="225.48" y="162.86" width="51.52" height="51.53"/><path class="cls-2" d="M940.37,497.6v51.54H888.83V522.62a25,25,0,0,1,25-25Z" transform="translate(-714.89 -334.74)"/><path class="cls-2" d="M1050.48,497.6v26.57a25,25,0,0,1-25,25H999V497.6Z" transform="translate(-714.89 -334.74)"/><path class="cls-1" d="M1050.48,360.49V489.83H999V335.4h26.44A25.09,25.09,0,0,1,1050.48,360.49Z" transform="translate(-714.89 -334.74)"/></g><g id="Layer_3_copy_2" data-name="Layer 3 copy 2"><path class="cls-3" d="M940.36,345.58v41.19H894.7C902.92,369.31,919.29,354.72,940.36,345.58Z" transform="translate(-714.89 -334.74)"/><path class="cls-3" d="M991.89,335.24v51.53H940.36V345.58A129.78,129.78,0,0,1,991.89,335.24Z" transform="translate(-714.89 -334.74)"/><rect class="cls-3" x="225.47" y="52.03" width="51.53" height="51.53"/><path class="cls-3" d="M940.36,386.77V438.3H894.7a59.48,59.48,0,0,1,0-51.53Z" transform="translate(-714.89 -334.74)"/><path class="cls-3" d="M940.36,438.3v41.19c-21.07-9.14-37.44-23.72-45.66-41.19Z" transform="translate(-714.89 -334.74)"/><path class="cls-3" d="M991.89,438.3v51.53a129.73,129.73,0,0,1-51.52-10.34V438.3Z" transform="translate(-714.89 -334.74)"/><rect class="cls-3" x="225.48" y="162.86" width="51.52" height="51.53"/><path class="cls-3" d="M940.37,497.6v51.54H888.83V522.62a25,25,0,0,1,25-25Z" transform="translate(-714.89 -334.74)"/><path class="cls-3" d="M1050.48,497.6v26.57a25,25,0,0,1-25,25H999V497.6Z" transform="translate(-714.89 -334.74)"/><path class="cls-3" d="M1050.48,360.49V489.83H999V335.4h26.44A25.09,25.09,0,0,1,1050.48,360.49Z" transform="translate(-714.89 -334.74)"/></g><g id="Layer_4_copy_2" data-name="Layer 4 copy 2"><path class="cls-2" d="M755.18,613.35a34.72,34.72,0,0,1,12.62,2.26,37.77,37.77,0,0,1,10.11,5.75,31.87,31.87,0,0,1,6.71,7.2c1.62,2.48,2.43,4.63,2.43,6.47l-3.56.16V622.25a8.24,8.24,0,0,1,2.26-5.83,7.65,7.65,0,0,1,5.83-2.42,7.74,7.74,0,0,1,5.82,2.34,8.19,8.19,0,0,1,2.27,5.91v71.5q0,13.59-5.83,22.24a34.21,34.21,0,0,1-15.45,12.7,54,54,0,0,1-21.11,4,51.84,51.84,0,0,1-9.54-1.05,88.91,88.91,0,0,1-10.11-2.51,20.54,20.54,0,0,1-6.39-2.91,10.4,10.4,0,0,1-4.93-4.53,6,6,0,0,1-.08-5.17c1-2.38,2.39-3.83,4.28-4.37a10.27,10.27,0,0,1,6.39.48q1.46.5,4.94,1.78a69.56,69.56,0,0,0,7.68,2.35,32.73,32.73,0,0,0,7.93,1.05q12.76,0,19.41-6t6.63-16.18V681.13l1.78,1.13A15.22,15.22,0,0,1,782.2,689a31,31,0,0,1-6.56,6.39,35.32,35.32,0,0,1-9.22,4.77A32,32,0,0,1,755.67,702,38,38,0,0,1,735,696.25a40.41,40.41,0,0,1-14.4-15.69,52.53,52.53,0,0,1,0-45.78A40.74,40.74,0,0,1,735,619.09,37.05,37.05,0,0,1,755.18,613.35Zm2.43,15a25.3,25.3,0,0,0-13.91,3.81,26.22,26.22,0,0,0-9.39,10.43,35.08,35.08,0,0,0,0,30.09,26.85,26.85,0,0,0,9.39,10.51,26.77,26.77,0,0,0,27.66.08,26,26,0,0,0,9.38-10.51,33.08,33.08,0,0,0,3.4-15.13,32.59,32.59,0,0,0-3.4-15,26.19,26.19,0,0,0-9.38-10.43A25.07,25.07,0,0,0,757.61,628.39Z" transform="translate(-714.89 -334.74)"/><path class="cls-2" d="M839.62,692.13a8,8,0,0,1-2.34,5.9,8.2,8.2,0,0,1-11.49,0,8,8,0,0,1-2.34-5.9V588.92a7.84,7.84,0,0,1,2.42-5.9,8.11,8.11,0,0,1,5.83-2.35,7.5,7.5,0,0,1,5.74,2.35,8.34,8.34,0,0,1,2.18,5.9Z" transform="translate(-714.89 -334.74)"/><path class="cls-2" d="M927.14,615.29a7.8,7.8,0,0,1,5.74,2.35,8,8,0,0,1,2.34,5.9v42.54q0,16.83-9.38,26.29t-26.53,9.47q-17.14,0-26.45-9.47t-9.3-26.29V623.54a8,8,0,0,1,8.25-8.25,7.77,7.77,0,0,1,5.74,2.35,8,8,0,0,1,2.35,5.9v42.54q0,10.53,4.93,15.7T899.31,687q9.71,0,14.64-5.17t4.94-15.7V623.54a8,8,0,0,1,8.25-8.25Z" transform="translate(-714.89 -334.74)"/><path class="cls-2" d="M1000.42,613.83q12,0,18.44,5.91t8.57,15.93l-2.59-.81,1.13-2.58a33.23,33.23,0,0,1,6.39-8.5,36.4,36.4,0,0,1,10.28-7.11,29.45,29.45,0,0,1,12.78-2.84q11.16,0,17.31,4.78a24.85,24.85,0,0,1,8.57,12.78,61.35,61.35,0,0,1,2.43,17.87v42.87a8.15,8.15,0,0,1-2.27,5.9,8.39,8.39,0,0,1-11.65,0,8.14,8.14,0,0,1-2.26-5.9V649.42a33.25,33.25,0,0,0-1.54-10.35,14.85,14.85,0,0,0-5.34-7.52q-3.8-2.84-10.43-2.83a22,22,0,0,0-11.32,2.83,20.79,20.79,0,0,0-7.61,7.52,20.14,20.14,0,0,0-2.75,10.35v42.71a8.14,8.14,0,0,1-2.26,5.9,8.39,8.39,0,0,1-11.65,0,8.14,8.14,0,0,1-2.26-5.9V649.26a32.47,32.47,0,0,0-1.54-10.27,15.19,15.19,0,0,0-5.26-7.44q-3.72-2.84-10.35-2.83a21.68,21.68,0,0,0-11.16,2.83,20.37,20.37,0,0,0-7.53,7.44,20.11,20.11,0,0,0-2.66,10.27v42.87a8,8,0,0,1-2.35,5.9,7.79,7.79,0,0,1-5.74,2.35,8,8,0,0,1-8.25-8.25V623.54a8,8,0,0,1,8.25-8.25,7.79,7.79,0,0,1,5.74,2.35,8,8,0,0,1,2.35,5.9v9.54l-3.08,1.78a27.92,27.92,0,0,1,3.72-7.28,31.5,31.5,0,0,1,6.55-6.79,36.38,36.38,0,0,1,8.82-5A28,28,0,0,1,1000.42,613.83Z" transform="translate(-714.89 -334.74)"/><path class="cls-2" d="M1113.33,604q-4.69,0-6.8-1.7c-1.4-1.13-2.1-3-2.1-5.74v-2.59q0-4.05,2.26-5.66t6.8-1.62c3.23,0,5.55.56,7,1.7s2.11,3,2.11,5.58v2.59q0,4.2-2.19,5.82C1118.91,603.43,1116.56,604,1113.33,604Zm8.25,88.16a8.15,8.15,0,0,1-2.27,5.9,8.38,8.38,0,0,1-11.64,0,8.11,8.11,0,0,1-2.27-5.9V622.89a8,8,0,0,1,2.35-5.9,8.28,8.28,0,0,1,11.56,0,8.15,8.15,0,0,1,2.27,5.9Z" transform="translate(-714.89 -334.74)"/><path class="cls-2" d="M1213.13,614a7.75,7.75,0,0,1,5.83,2.34,8.18,8.18,0,0,1,2.26,5.91v69.88A8.14,8.14,0,0,1,1219,698a8.39,8.39,0,0,1-11.65,0,8.14,8.14,0,0,1-2.26-5.9V680.48l3.39.65a12.33,12.33,0,0,1-2.34,6.39,29.16,29.16,0,0,1-6.39,6.87,36.83,36.83,0,0,1-9.55,5.42,31.58,31.58,0,0,1-11.8,2.19,36.16,36.16,0,0,1-20.06-5.75,40.22,40.22,0,0,1-14.08-15.77,49,49,0,0,1-5.17-22.81q0-13.09,5.17-23a40.22,40.22,0,0,1,14-15.61,35.39,35.39,0,0,1,19.5-5.66,35.87,35.87,0,0,1,12.86,2.26,37.61,37.61,0,0,1,10.27,5.83,30,30,0,0,1,6.79,7.52,14.48,14.48,0,0,1,2.43,7.52l-5,.49V622.25a8.24,8.24,0,0,1,2.26-5.83A7.63,7.63,0,0,1,1213.13,614Zm-33,73.12a23.64,23.64,0,0,0,13.43-3.89,26.07,26.07,0,0,0,9.06-10.59,36.18,36.18,0,0,0,0-29.93,25.45,25.45,0,0,0-9.06-10.51,24,24,0,0,0-13.43-3.81A23.29,23.29,0,0,0,1167,632.2a26.29,26.29,0,0,0-9.06,10.43,35.67,35.67,0,0,0,0,30,26.84,26.84,0,0,0,9.06,10.59A23,23,0,0,0,1180.13,687.12Z" transform="translate(-714.89 -334.74)"/></g><g id="Layer_4_copy_3" data-name="Layer 4 copy 3"><path class="cls-3" d="M755.18,613.35a34.72,34.72,0,0,1,12.62,2.26,37.77,37.77,0,0,1,10.11,5.75,31.87,31.87,0,0,1,6.71,7.2c1.62,2.48,2.43,4.63,2.43,6.47l-3.56.16V622.25a8.24,8.24,0,0,1,2.26-5.83,7.65,7.65,0,0,1,5.83-2.42,7.74,7.74,0,0,1,5.82,2.34,8.19,8.19,0,0,1,2.27,5.91v71.5q0,13.59-5.83,22.24a34.21,34.21,0,0,1-15.45,12.7,54,54,0,0,1-21.11,4,51.84,51.84,0,0,1-9.54-1.05,88.91,88.91,0,0,1-10.11-2.51,20.54,20.54,0,0,1-6.39-2.91,10.4,10.4,0,0,1-4.93-4.53,6,6,0,0,1-.08-5.17c1-2.38,2.39-3.83,4.28-4.37a10.27,10.27,0,0,1,6.39.48q1.46.5,4.94,1.78a69.56,69.56,0,0,0,7.68,2.35,32.73,32.73,0,0,0,7.93,1.05q12.76,0,19.41-6t6.63-16.18V681.13l1.78,1.13A15.22,15.22,0,0,1,782.2,689a31,31,0,0,1-6.56,6.39,35.32,35.32,0,0,1-9.22,4.77A32,32,0,0,1,755.67,702,38,38,0,0,1,735,696.25a40.41,40.41,0,0,1-14.4-15.69,52.53,52.53,0,0,1,0-45.78A40.74,40.74,0,0,1,735,619.09,37.05,37.05,0,0,1,755.18,613.35Zm2.43,15a25.3,25.3,0,0,0-13.91,3.81,26.22,26.22,0,0,0-9.39,10.43,35.08,35.08,0,0,0,0,30.09,26.85,26.85,0,0,0,9.39,10.51,26.77,26.77,0,0,0,27.66.08,26,26,0,0,0,9.38-10.51,33.08,33.08,0,0,0,3.4-15.13,32.59,32.59,0,0,0-3.4-15,26.19,26.19,0,0,0-9.38-10.43A25.07,25.07,0,0,0,757.61,628.39Z" transform="translate(-714.89 -334.74)"/><path class="cls-3" d="M839.62,692.13a8,8,0,0,1-2.34,5.9,8.2,8.2,0,0,1-11.49,0,8,8,0,0,1-2.34-5.9V588.92a7.84,7.84,0,0,1,2.42-5.9,8.11,8.11,0,0,1,5.83-2.35,7.5,7.5,0,0,1,5.74,2.35,8.34,8.34,0,0,1,2.18,5.9Z" transform="translate(-714.89 -334.74)"/><path class="cls-3" d="M927.14,615.29a7.8,7.8,0,0,1,5.74,2.35,8,8,0,0,1,2.34,5.9v42.54q0,16.83-9.38,26.29t-26.53,9.47q-17.14,0-26.45-9.47t-9.3-26.29V623.54a8,8,0,0,1,8.25-8.25,7.77,7.77,0,0,1,5.74,2.35,8,8,0,0,1,2.35,5.9v42.54q0,10.53,4.93,15.7T899.31,687q9.71,0,14.64-5.17t4.94-15.7V623.54a8,8,0,0,1,8.25-8.25Z" transform="translate(-714.89 -334.74)"/><path class="cls-3" d="M1000.42,613.83q12,0,18.44,5.91t8.57,15.93l-2.59-.81,1.13-2.58a33.23,33.23,0,0,1,6.39-8.5,36.4,36.4,0,0,1,10.28-7.11,29.45,29.45,0,0,1,12.78-2.84q11.16,0,17.31,4.78a24.85,24.85,0,0,1,8.57,12.78,61.35,61.35,0,0,1,2.43,17.87v42.87a8.15,8.15,0,0,1-2.27,5.9,8.39,8.39,0,0,1-11.65,0,8.14,8.14,0,0,1-2.26-5.9V649.42a33.25,33.25,0,0,0-1.54-10.35,14.85,14.85,0,0,0-5.34-7.52q-3.8-2.84-10.43-2.83a22,22,0,0,0-11.32,2.83,20.79,20.79,0,0,0-7.61,7.52,20.14,20.14,0,0,0-2.75,10.35v42.71a8.14,8.14,0,0,1-2.26,5.9,8.39,8.39,0,0,1-11.65,0,8.14,8.14,0,0,1-2.26-5.9V649.26a32.47,32.47,0,0,0-1.54-10.27,15.19,15.19,0,0,0-5.26-7.44q-3.72-2.84-10.35-2.83a21.68,21.68,0,0,0-11.16,2.83,20.37,20.37,0,0,0-7.53,7.44,20.11,20.11,0,0,0-2.66,10.27v42.87a8,8,0,0,1-2.35,5.9,7.79,7.79,0,0,1-5.74,2.35,8,8,0,0,1-8.25-8.25V623.54a8,8,0,0,1,8.25-8.25,7.79,7.79,0,0,1,5.74,2.35,8,8,0,0,1,2.35,5.9v9.54l-3.08,1.78a27.92,27.92,0,0,1,3.72-7.28,31.5,31.5,0,0,1,6.55-6.79,36.38,36.38,0,0,1,8.82-5A28,28,0,0,1,1000.42,613.83Z" transform="translate(-714.89 -334.74)"/><path class="cls-3" d="M1113.33,604q-4.69,0-6.8-1.7c-1.4-1.13-2.1-3-2.1-5.74v-2.59q0-4.05,2.26-5.66t6.8-1.62c3.23,0,5.55.56,7,1.7s2.11,3,2.11,5.58v2.59q0,4.2-2.19,5.82C1118.91,603.43,1116.56,604,1113.33,604Zm8.25,88.16a8.15,8.15,0,0,1-2.27,5.9,8.38,8.38,0,0,1-11.64,0,8.11,8.11,0,0,1-2.27-5.9V622.89a8,8,0,0,1,2.35-5.9,8.28,8.28,0,0,1,11.56,0,8.15,8.15,0,0,1,2.27,5.9Z" transform="translate(-714.89 -334.74)"/><path class="cls-3" d="M1213.13,614a7.75,7.75,0,0,1,5.83,2.34,8.18,8.18,0,0,1,2.26,5.91v69.88A8.14,8.14,0,0,1,1219,698a8.39,8.39,0,0,1-11.65,0,8.14,8.14,0,0,1-2.26-5.9V680.48l3.39.65a12.33,12.33,0,0,1-2.34,6.39,29.16,29.16,0,0,1-6.39,6.87,36.83,36.83,0,0,1-9.55,5.42,31.58,31.58,0,0,1-11.8,2.19,36.16,36.16,0,0,1-20.06-5.75,40.22,40.22,0,0,1-14.08-15.77,49,49,0,0,1-5.17-22.81q0-13.09,5.17-23a40.22,40.22,0,0,1,14-15.61,35.39,35.39,0,0,1,19.5-5.66,35.87,35.87,0,0,1,12.86,2.26,37.61,37.61,0,0,1,10.27,5.83,30,30,0,0,1,6.79,7.52,14.48,14.48,0,0,1,2.43,7.52l-5,.49V622.25a8.24,8.24,0,0,1,2.26-5.83A7.63,7.63,0,0,1,1213.13,614Zm-33,73.12a23.64,23.64,0,0,0,13.43-3.89,26.07,26.07,0,0,0,9.06-10.59,36.18,36.18,0,0,0,0-29.93,25.45,25.45,0,0,0-9.06-10.51,24,24,0,0,0-13.43-3.81A23.29,23.29,0,0,0,1167,632.2a26.29,26.29,0,0,0-9.06,10.43,35.67,35.67,0,0,0,0,30,26.84,26.84,0,0,0,9.06,10.59A23,23,0,0,0,1180.13,687.12Z" transform="translate(-714.89 -334.74)"/></g></svg>