<svg xmlns="http://www.w3.org/2000/svg" viewBox="0 0 700.26 214.9"><defs><style>.cls-1{fill:#055fa3;stroke:#055fa3;stroke-miterlimit:10;}</style></defs><g id="Layer_4_copy_4" data-name="Layer 4 copy 4"><path class="cls-1" d="M824.72,468.47a34.72,34.72,0,0,1,12.62,2.26,37.77,37.77,0,0,1,10.11,5.75,32.1,32.1,0,0,1,6.71,7.2c1.62,2.48,2.43,4.63,2.43,6.47l-3.56.16V477.37a8.24,8.24,0,0,1,2.26-5.83,7.63,7.63,0,0,1,5.83-2.42,7.74,7.74,0,0,1,5.82,2.34,8.19,8.19,0,0,1,2.27,5.91v71.5q0,13.59-5.83,22.24a34.21,34.21,0,0,1-15.45,12.7,54,54,0,0,1-21.11,4,51.84,51.84,0,0,1-9.54-1.05,88.91,88.91,0,0,1-10.11-2.51,20.32,20.32,0,0,1-6.39-2.91,10.47,10.47,0,0,1-4.94-4.53,6,6,0,0,1-.08-5.17c1-2.38,2.4-3.83,4.29-4.37a10.27,10.27,0,0,1,6.39.48q1.45.5,4.93,1.78a70.43,70.43,0,0,0,7.69,2.35A32.71,32.71,0,0,0,827,573q12.78,0,19.42-6T853,550.81V536.25l1.78,1.13a15.25,15.25,0,0,1-3.08,6.72,30.63,30.63,0,0,1-6.55,6.38,35,35,0,0,1-9.22,4.78,32,32,0,0,1-10.75,1.86,38,38,0,0,1-20.63-5.74,40.51,40.51,0,0,1-14.4-15.7,52.53,52.53,0,0,1,0-45.78,40.74,40.74,0,0,1,14.32-15.69A37.05,37.05,0,0,1,824.72,468.47Zm2.43,15a25.44,25.44,0,0,0-13.92,3.8,26.36,26.36,0,0,0-9.38,10.44,35,35,0,0,0,0,30.09,26.91,26.91,0,0,0,9.38,10.51,26.84,26.84,0,0,0,27.67.08,26.17,26.17,0,0,0,9.38-10.51,33.11,33.11,0,0,0,3.4-15.13,32.59,32.59,0,0,0-3.4-15,26.44,26.44,0,0,0-9.38-10.44A25.14,25.14,0,0,0,827.15,483.51Z" transform="translate(-591.01 -410.75)"/><path class="cls-1" d="M909.16,547.25a8,8,0,0,1-2.34,5.9,8.2,8.2,0,0,1-11.49,0,8,8,0,0,1-2.35-5.9V444a7.85,7.85,0,0,1,2.43-5.9,8.1,8.1,0,0,1,5.82-2.35,7.51,7.51,0,0,1,5.75,2.35,8.34,8.34,0,0,1,2.18,5.9Z" transform="translate(-591.01 -410.75)"/><path class="cls-1" d="M996.67,470.41a7.81,7.81,0,0,1,5.75,2.35,8,8,0,0,1,2.34,5.9V521.2q0,16.83-9.38,26.29T968.85,557q-17.15,0-26.45-9.47t-9.3-26.29V478.66a8,8,0,0,1,8.25-8.25,7.77,7.77,0,0,1,5.74,2.35,8,8,0,0,1,2.35,5.9V521.2q0,10.53,4.93,15.7t14.48,5.17q9.71,0,14.64-5.17t4.93-15.7V478.66a8,8,0,0,1,8.25-8.25Z" transform="translate(-591.01 -410.75)"/><path class="cls-1" d="M1070,469q12,0,18.45,5.91t8.57,15.93l-2.59-.81,1.13-2.58a33.23,33.23,0,0,1,6.39-8.5,36.35,36.35,0,0,1,10.27-7.11A29.48,29.48,0,0,1,1125,469q11.17,0,17.31,4.78a24.81,24.81,0,0,1,8.58,12.78,61.36,61.36,0,0,1,2.42,17.87v42.87a8.14,8.14,0,0,1-2.26,5.9,8.39,8.39,0,0,1-11.65,0,8.14,8.14,0,0,1-2.26-5.9V504.54a33.25,33.25,0,0,0-1.54-10.35,14.91,14.91,0,0,0-5.34-7.52q-3.8-2.84-10.43-2.83a22.06,22.06,0,0,0-11.33,2.83,20.77,20.77,0,0,0-7.6,7.52,20.14,20.14,0,0,0-2.75,10.35v42.71a8.14,8.14,0,0,1-2.26,5.9,8.39,8.39,0,0,1-11.65,0,8.15,8.15,0,0,1-2.27-5.9V504.38a32.48,32.48,0,0,0-1.53-10.27,15.19,15.19,0,0,0-5.26-7.44q-3.72-2.84-10.35-2.83a21.68,21.68,0,0,0-11.16,2.83,20.37,20.37,0,0,0-7.53,7.44,20.12,20.12,0,0,0-2.67,10.27v42.87a8,8,0,0,1-2.34,5.9,7.8,7.8,0,0,1-5.74,2.35,8,8,0,0,1-8.25-8.25V478.66a8,8,0,0,1,8.25-8.25,7.8,7.8,0,0,1,5.74,2.35,8,8,0,0,1,2.34,5.9v9.54l-3.07,1.78a27.32,27.32,0,0,1,3.72-7.28,31.5,31.5,0,0,1,6.55-6.79,36,36,0,0,1,8.82-5A27.91,27.91,0,0,1,1070,469Z" transform="translate(-591.01 -410.75)"/><path class="cls-1" d="M1182.87,459.09q-4.69,0-6.8-1.7c-1.4-1.13-2.1-3.05-2.1-5.74v-2.59q0-4.05,2.26-5.66t6.8-1.62c3.23,0,5.55.56,7,1.7s2.11,3,2.11,5.58v2.59q0,4.2-2.19,5.82C1188.45,458.55,1186.1,459.09,1182.87,459.09Zm8.25,88.16a8.15,8.15,0,0,1-2.27,5.9,8.39,8.39,0,0,1-11.65,0,8.14,8.14,0,0,1-2.26-5.9V478a8,8,0,0,1,2.34-5.9,7.85,7.85,0,0,1,5.75-2.35,7.75,7.75,0,0,1,5.82,2.35,8.15,8.15,0,0,1,2.27,5.9Z" transform="translate(-591.01 -410.75)"/><path class="cls-1" d="M1282.67,469.12a7.77,7.77,0,0,1,5.83,2.34,8.18,8.18,0,0,1,2.26,5.91v69.88a8.14,8.14,0,0,1-2.26,5.9,8.39,8.39,0,0,1-11.65,0,8.14,8.14,0,0,1-2.26-5.9V535.6l3.39.65a12.33,12.33,0,0,1-2.34,6.39,29.16,29.16,0,0,1-6.39,6.87,36.83,36.83,0,0,1-9.55,5.42,31.59,31.59,0,0,1-11.81,2.19,36.26,36.26,0,0,1-20.06-5.74,40.38,40.38,0,0,1-14.07-15.78,53.34,53.34,0,0,1,0-45.86,40.22,40.22,0,0,1,14-15.61,35.39,35.39,0,0,1,19.5-5.66,35.87,35.87,0,0,1,12.86,2.26,37.61,37.61,0,0,1,10.27,5.83,30,30,0,0,1,6.79,7.52,14.48,14.48,0,0,1,2.43,7.52l-5,.49V477.37a8.24,8.24,0,0,1,2.26-5.83A7.63,7.63,0,0,1,1282.67,469.12Zm-33,73.11a23.63,23.63,0,0,0,13.43-3.88,26.07,26.07,0,0,0,9.06-10.59,36.28,36.28,0,0,0,0-29.93,25.54,25.54,0,0,0-9.06-10.52,24,24,0,0,0-13.43-3.8,23.36,23.36,0,0,0-13.18,3.8,26.39,26.39,0,0,0-9.06,10.44,35.57,35.57,0,0,0,0,30,26.84,26.84,0,0,0,9.06,10.59A23,23,0,0,0,1249.67,542.23Z" transform="translate(-591.01 -410.75)"/></g><g id="Layer_3_copy_3" data-name="Layer 3 copy 3"><path class="cls-1" d="M643,421.59v41.19H597.38C605.6,445.32,622,430.73,643,421.59Z" transform="translate(-591.01 -410.75)"/><path class="cls-1" d="M694.57,411.25v51.53H643V421.59A129.78,129.78,0,0,1,694.57,411.25Z" transform="translate(-591.01 -410.75)"/><rect class="cls-1" x="52.03" y="52.03" width="51.53" height="51.53"/><path class="cls-1" d="M643,462.78v51.54H597.38a59.5,59.5,0,0,1,0-51.54Z" transform="translate(-591.01 -410.75)"/><path class="cls-1" d="M643,514.32V555.5c-21.07-9.14-37.44-23.72-45.66-41.18Z" transform="translate(-591.01 -410.75)"/><path class="cls-1" d="M694.57,514.32v51.52A129.73,129.73,0,0,1,643,555.5V514.32Z" transform="translate(-591.01 -410.75)"/><rect class="cls-1" x="52.04" y="162.86" width="51.52" height="51.53"/><path class="cls-1" d="M643.05,573.62v51.53H591.51V598.63a25,25,0,0,1,25-25Z" transform="translate(-591.01 -410.75)"/><path class="cls-1" d="M753.16,573.62v26.57a25,25,0,0,1-25,25H701.63V573.62Z" transform="translate(-591.01 -410.75)"/><path class="cls-1" d="M753.16,436.51V565.84H701.63V411.41h26.44A25.09,25.09,0,0,1,753.16,436.51Z" transform="translate(-591.01 -410.75)"/></g></svg>